<svg xmlns="http://www.w3.org/2000/svg" xmlns:xlink="http://www.w3.org/1999/xlink" fill="none" version="1.1" width="48" height="48" viewBox="0 0 48 48"><g><g><path d="M26.7014,30.8774C25.848399999999998,31.7849,24.9501,32.238600000000005,24.0064,32.238600000000005C23.0627,32.238600000000005,22.1643,31.7849,21.3113,30.8774L10.612842,19.55284C10.213594,19.11728,10.00942603,18.62727,10.000333216,18.082819999999998C9.9912404,17.53837,10.168189,17.06649,10.531174,16.667245C10.948604,16.231684,11.44313,16.00938245,12.014800000000001,16.000290736C12.58648,15.99119903,13.07197,16.19537,13.47121,16.612801L24.0064,27.7741L34.5415,16.612801C34.9226,16.19537,35.399,15.99577136,35.9707,16.0139018C36.5424,16.0320345,37.0369,16.249814,37.4543,16.667245C37.8354,17.04836,38.0169,17.51566,37.9988,18.069209999999998C37.980599999999995,18.62275,37.7719,19.11728,37.3726,19.55284L26.7014,30.8774Z" fill="#FFFFFF" fill-opacity="1" style="mix-blend-mode:passthrough"/></g></g></svg>