<svg xmlns="http://www.w3.org/2000/svg" xmlns:xlink="http://www.w3.org/1999/xlink" fill="none" version="1.1" width="3840" height="2400" viewBox="0 0 3840 2400"><defs><clipPath id="master_svg0_62_15827"><rect x="0" y="0" width="3840" height="2400" rx="0"/></clipPath><filter id="master_svg1_62_21377" filterUnits="objectBoundingBox" color-interpolation-filters="sRGB" x="-0.027721886876816454" y="-0.0229126213592233" width="1.0447127207690587" height="1.0388349514563107"><feFlood flood-opacity="0" result="BackgroundImageFix"/><feColorMatrix in="SourceAlpha" type="matrix" values="0 0 0 0 0 0 0 0 0 0 0 0 0 0 0 0 0 0 127 0"/><feOffset dy="3" dx="0"/><feGaussianBlur stdDeviation="3"/><feColorMatrix type="matrix" values="0 0 0 0 0 0 0 0 0 0 0 0 0 0 0 0 0 0 0.1599999964237213 0"/><feBlend mode="normal" in2="BackgroundImageFix" result="effect1_dropShadow"/><feColorMatrix in="SourceAlpha" type="matrix" values="0 0 0 0 0 0 0 0 0 0 0 0 0 0 0 0 0 0 127 0"/><feOffset dy="3" dx="0"/><feGaussianBlur stdDeviation="3"/><feColorMatrix type="matrix" values="0 0 0 0 0 0 0 0 0 0 0 0 0 0 0 0 0 0 0.23000000417232513 0"/><feBlend mode="normal" in2="effect1_dropShadow" result="effect2_dropShadow"/><feBlend mode="normal" in="SourceGraphic" in2="effect2_dropShadow" result="shape"/><feGaussianBlur stdDeviation="25" result="effect3_foregroundBlur"/></filter><linearGradient x1="1" y1="0.6367156505584717" x2="0.43595412438935605" y2="1.0738966220368593" id="master_svg2_60_9009"><stop offset="0%" stop-color="#0DFF09" stop-opacity="1"/><stop offset="100%" stop-color="#0C9D6A" stop-opacity="1"/></linearGradient><linearGradient x1="0" y1="0" x2="0.7301918394881012" y2="0.9850829411070574" id="master_svg3_60_9010"><stop offset="0%" stop-color="#006F9A" stop-opacity="0.550000011920929"/><stop offset="56.8493127822876%" stop-color="#00D4FF" stop-opacity="0.6700000166893005"/><stop offset="100%" stop-color="#24ABFF" stop-opacity="1"/></linearGradient><filter id="master_svg4_62_21376" filterUnits="objectBoundingBox" color-interpolation-filters="sRGB" x="-0.028330155271043312" y="-0.02318977756743966" width="1.0435848542631436" height="1.0378608613345954"><feFlood flood-opacity="0" result="BackgroundImageFix"/><feColorMatrix in="SourceAlpha" type="matrix" values="0 0 0 0 0 0 0 0 0 0 0 0 0 0 0 0 0 0 127 0"/><feOffset dy="3" dx="0"/><feGaussianBlur stdDeviation="3"/><feColorMatrix type="matrix" values="0 0 0 0 0 0 0 0 0 0 0 0 0 0 0 0 0 0 0.1599999964237213 0"/><feBlend mode="normal" in2="BackgroundImageFix" result="effect1_dropShadow"/><feColorMatrix in="SourceAlpha" type="matrix" values="0 0 0 0 0 0 0 0 0 0 0 0 0 0 0 0 0 0 127 0"/><feOffset dy="3" dx="0"/><feGaussianBlur stdDeviation="3"/><feColorMatrix type="matrix" values="0 0 0 0 0 0 0 0 0 0 0 0 0 0 0 0 0 0 0.23000000417232513 0"/><feBlend mode="normal" in2="effect1_dropShadow" result="effect2_dropShadow"/><feBlend mode="normal" in="SourceGraphic" in2="effect2_dropShadow" result="shape"/><feGaussianBlur stdDeviation="20" result="effect3_foregroundBlur"/></filter><linearGradient x1="1" y1="0.6367156505584717" x2="0.43588208796700617" y2="1.0738251726217434" id="master_svg5_60_9009"><stop offset="0%" stop-color="#0DFF09" stop-opacity="1"/><stop offset="100%" stop-color="#0C9D6A" stop-opacity="1"/></linearGradient><linearGradient x1="0" y1="0" x2="0.7303432446614412" y2="0.9850003722274994" id="master_svg6_60_9010"><stop offset="0%" stop-color="#006F9A" stop-opacity="0.550000011920929"/><stop offset="56.8493127822876%" stop-color="#00D4FF" stop-opacity="0.6700000166893005"/><stop offset="100%" stop-color="#24ABFF" stop-opacity="1"/></linearGradient><filter id="master_svg7_62_21375" filterUnits="objectBoundingBox" color-interpolation-filters="sRGB" x="-0.028282828282828285" y="-0.022813688212927757" width="1.0404040404040404" height="1.0350979818660426"><feFlood flood-opacity="0" result="BackgroundImageFix"/><feColorMatrix in="SourceAlpha" type="matrix" values="0 0 0 0 0 0 0 0 0 0 0 0 0 0 0 0 0 0 127 0"/><feOffset dy="3" dx="0"/><feGaussianBlur stdDeviation="3"/><feColorMatrix type="matrix" values="0 0 0 0 0 0 0 0 0 0 0 0 0 0 0 0 0 0 0.1599999964237213 0"/><feBlend mode="normal" in2="BackgroundImageFix" result="effect1_dropShadow"/><feColorMatrix in="SourceAlpha" type="matrix" values="0 0 0 0 0 0 0 0 0 0 0 0 0 0 0 0 0 0 127 0"/><feOffset dy="3" dx="0"/><feGaussianBlur stdDeviation="3"/><feColorMatrix type="matrix" values="0 0 0 0 0 0 0 0 0 0 0 0 0 0 0 0 0 0 0.23000000417232513 0"/><feBlend mode="normal" in2="effect1_dropShadow" result="effect2_dropShadow"/><feBlend mode="normal" in="SourceGraphic" in2="effect2_dropShadow" result="shape"/><feGaussianBlur stdDeviation="15" result="effect3_foregroundBlur"/></filter><linearGradient x1="1" y1="0.6367156505584717" x2="0.43587928925726604" y2="1.073822395904813" id="master_svg8_60_9009"><stop offset="0%" stop-color="#0DFF09" stop-opacity="1"/><stop offset="100%" stop-color="#0C9D6A" stop-opacity="1"/></linearGradient><linearGradient x1="0" y1="0" x2="0.7303491278224271" y2="0.984997162738411" id="master_svg9_60_9010"><stop offset="0%" stop-color="#006F9A" stop-opacity="0.550000011920929"/><stop offset="56.8493127822876%" stop-color="#00D4FF" stop-opacity="0.6700000166893005"/><stop offset="100%" stop-color="#24ABFF" stop-opacity="1"/></linearGradient><filter id="master_svga_62_21374" filterUnits="objectBoundingBox" color-interpolation-filters="sRGB" x="-0.028193832599118944" y="-0.022196708763872943" width="1.0352422907488987" height="1.030616150019135"><feFlood flood-opacity="0" result="BackgroundImageFix"/><feColorMatrix in="SourceAlpha" type="matrix" values="0 0 0 0 0 0 0 0 0 0 0 0 0 0 0 0 0 0 127 0"/><feOffset dy="3" dx="0"/><feGaussianBlur stdDeviation="3"/><feColorMatrix type="matrix" values="0 0 0 0 0 0 0 0 0 0 0 0 0 0 0 0 0 0 0.1599999964237213 0"/><feBlend mode="normal" in2="BackgroundImageFix" result="effect1_dropShadow"/><feColorMatrix in="SourceAlpha" type="matrix" values="0 0 0 0 0 0 0 0 0 0 0 0 0 0 0 0 0 0 127 0"/><feOffset dy="3" dx="0"/><feGaussianBlur stdDeviation="3"/><feColorMatrix type="matrix" values="0 0 0 0 0 0 0 0 0 0 0 0 0 0 0 0 0 0 0.23000000417232513 0"/><feBlend mode="normal" in2="effect1_dropShadow" result="effect2_dropShadow"/><feBlend mode="normal" in="SourceGraphic" in2="effect2_dropShadow" result="shape"/><feGaussianBlur stdDeviation="10" result="effect3_foregroundBlur"/></filter><linearGradient x1="1" y1="0.6367156505584717" x2="0.4358461426593073" y2="1.0737895051513144" id="master_svgb_60_9009"><stop offset="0%" stop-color="#0DFF09" stop-opacity="1"/><stop offset="100%" stop-color="#0C9D6A" stop-opacity="1"/></linearGradient><linearGradient x1="0" y1="0" x2="0.730418810162066" y2="0.9849591420729279" id="master_svgc_60_9010"><stop offset="0%" stop-color="#006F9A" stop-opacity="0.550000011920929"/><stop offset="56.8493127822876%" stop-color="#00D4FF" stop-opacity="0.6700000166893005"/><stop offset="100%" stop-color="#24ABFF" stop-opacity="1"/></linearGradient><filter id="master_svgd_62_21373" filterUnits="objectBoundingBox" color-interpolation-filters="sRGB" x="-0.028138526786745863" y="-0.021111111111111112" width="1.0255804788970417" height="1.0222222222222221"><feFlood flood-opacity="0" result="BackgroundImageFix"/><feColorMatrix in="SourceAlpha" type="matrix" values="0 0 0 0 0 0 0 0 0 0 0 0 0 0 0 0 0 0 127 0"/><feOffset dy="3" dx="0"/><feGaussianBlur stdDeviation="3"/><feColorMatrix type="matrix" values="0 0 0 0 0 0 0 0 0 0 0 0 0 0 0 0 0 0 0.1599999964237213 0"/><feBlend mode="normal" in2="BackgroundImageFix" result="effect1_dropShadow"/><feColorMatrix in="SourceAlpha" type="matrix" values="0 0 0 0 0 0 0 0 0 0 0 0 0 0 0 0 0 0 127 0"/><feOffset dy="3" dx="0"/><feGaussianBlur stdDeviation="3"/><feColorMatrix type="matrix" values="0 0 0 0 0 0 0 0 0 0 0 0 0 0 0 0 0 0 0.23000000417232513 0"/><feBlend mode="normal" in2="effect1_dropShadow" result="effect2_dropShadow"/><feBlend mode="normal" in="SourceGraphic" in2="effect2_dropShadow" result="shape"/><feGaussianBlur stdDeviation="5" result="effect3_foregroundBlur"/></filter><linearGradient x1="1" y1="0.6367156505584717" x2="0.43585483571336714" y2="1.0737981319331915" id="master_svge_60_9009"><stop offset="0%" stop-color="#0DFF09" stop-opacity="1"/><stop offset="100%" stop-color="#0C9D6A" stop-opacity="1"/></linearGradient><linearGradient x1="0" y1="0" x2="0.7304005343299941" y2="0.9849691150082595" id="master_svgf_60_9010"><stop offset="0%" stop-color="#006F9A" stop-opacity="0.550000011920929"/><stop offset="56.8493127822876%" stop-color="#00D4FF" stop-opacity="0.6700000166893005"/><stop offset="100%" stop-color="#24ABFF" stop-opacity="1"/></linearGradient><clipPath id="master_svgg_62_15829"><rect x="1408" y="688" width="1024" height="1024" rx="0"/></clipPath><filter id="master_svgh_62_15882" filterUnits="objectBoundingBox" color-interpolation-filters="sRGB" x="-0.028818444226450107" y="-0.018774858247311926" width="1.02881844422645" height="1.0250331443297493"><feFlood flood-opacity="0" result="BackgroundImageFix"/><feColorMatrix in="SourceAlpha" type="matrix" values="0 0 0 0 0 0 0 0 0 0 0 0 0 0 0 0 0 0 127 0"/><feOffset dy="3" dx="0"/><feGaussianBlur stdDeviation="3"/><feColorMatrix type="matrix" values="0 0 0 0 0 0 0 0 0 0 0 0 0 0 0 0 0 0 0.1599999964237213 0"/><feBlend mode="normal" in2="BackgroundImageFix" result="effect1_dropShadow"/><feColorMatrix in="SourceAlpha" type="matrix" values="0 0 0 0 0 0 0 0 0 0 0 0 0 0 0 0 0 0 127 0"/><feOffset dy="3" dx="0"/><feGaussianBlur stdDeviation="3"/><feColorMatrix type="matrix" values="0 0 0 0 0 0 0 0 0 0 0 0 0 0 0 0 0 0 0.23000000417232513 0"/><feBlend mode="normal" in2="effect1_dropShadow" result="effect2_dropShadow"/><feBlend mode="normal" in="SourceGraphic" in2="effect2_dropShadow" result="shape"/></filter><linearGradient x1="1" y1="0.6367156505584717" x2="0.43589350319992987" y2="1.0738364975213968" id="master_svgi_60_9009"><stop offset="0%" stop-color="#0DFF09" stop-opacity="1"/><stop offset="100%" stop-color="#0C9D6A" stop-opacity="1"/></linearGradient><linearGradient x1="0" y1="0" x2="0.7303192494027043" y2="0.9850134617019769" id="master_svgj_60_9010"><stop offset="0%" stop-color="#006F9A" stop-opacity="0.550000011920929"/><stop offset="56.8493127822876%" stop-color="#00D4FF" stop-opacity="0.6700000166893005"/><stop offset="100%" stop-color="#24ABFF" stop-opacity="1"/></linearGradient><clipPath id="master_svgk_62_15837"><rect x="1566" y="844" width="704" height="704.0000610351562" rx="0"/></clipPath><filter id="master_svgl_62_15838" filterUnits="objectBoundingBox" color-interpolation-filters="sRGB" x="-0.03787878787878788" y="-0.02797202498727812" width="1.0757575757575757" height="1.0699300624681953"><feFlood flood-opacity="0" result="BackgroundImageFix"/><feColorMatrix in="SourceAlpha" type="matrix" values="0 0 0 0 0 0 0 0 0 0 0 0 0 0 0 0 0 0 127 0"/><feOffset dy="4" dx="0"/><feGaussianBlur stdDeviation="5"/><feColorMatrix type="matrix" values="0 0 0 0 0 0 0 0 0 0 0 0 0 0 0 0 0 0 0.30000001192092896 0"/><feBlend mode="normal" in2="BackgroundImageFix" result="effect1_dropShadow"/><feBlend mode="normal" in="SourceGraphic" in2="effect1_dropShadow" result="shape"/></filter><linearGradient x1="1919.5050048828125" y1="1472" x2="1919.5050048828125" y2="1746" gradientUnits="userSpaceOnUse" id="master_svgm_63_0325"><stop offset="0%" stop-color="#FFFFFF" stop-opacity="1"/><stop offset="100%" stop-color="#FFFFFF" stop-opacity="0.5"/></linearGradient></defs><g clip-path="url(#master_svg0_62_15827)"><g style="opacity:0.5;" filter="url(#master_svg1_62_21377)"><path d="M1872.569938964844,-1354.7048C1893.8499389648437,-1366.99236,1901.1999389648436,-1371.23646,1909.009938964844,-1372.89762C1915.9299389648436,-1374.36746,1923.069938964844,-1374.36746,1929.9899389648435,-1372.89762C1937.799938964844,-1371.23645,1945.1499389648438,-1366.99236,1966.4299389648436,-1354.7048L4109.0699389648435,-117.5C4130.349938964844,-105.21000000000004,4137.699938964844,-100.97000000000003,4143.039938964844,-95.02999999999997C4147.769938964844,-89.77999999999997,4151.349938964844,-83.58999999999992,4153.5299389648435,-76.86999999999989C4155.999938964844,-69.26999999999998,4155.999938964844,-60.77999999999997,4155.999938964844,-36.200000000000045L4155.999938964844,2438.2C4155.999938964844,2462.78,4155.999938964844,2471.27,4153.5299389648435,2478.87C4151.349938964844,2485.59,4147.769938964844,2491.78,4143.039938964844,2497.03C4137.699938964844,2502.97,4130.349938964844,2507.21,4109.0699389648435,2519.5L1966.4299389648436,3756.7C1945.1499389648438,3768.99,1937.799938964844,3773.24,1929.9899389648435,3774.8999999999996C1923.069938964844,3776.37,1915.9299389648436,3776.37,1909.009938964844,3774.8999999999996C1901.1999389648436,3773.24,1893.8499389648437,3768.99,1872.569938964844,3756.7L-270.06876103515623,2519.5C-291.34876103515626,2507.21,-298.69886103515626,2502.97,-304.04446103515625,2497.03C-308.77421103515627,2491.78,-312.34708103515624,2485.59,-314.5313210351562,2478.87C-316.99998407105625,2471.27,-316.99998407105625,2462.78,-316.99998407105625,2438.2L-317.00006103515625,-36.200000000000045C-317.00006103515625,-60.77999999999997,-317.00006103515625,-69.26999999999998,-314.53140103515625,-76.86999999999989C-312.34712103515625,-83.58999999999992,-308.7742510351562,-89.77999999999997,-304.04446103515625,-95.02999999999997C-298.69896103515623,-100.97000000000003,-291.34886103515623,-105.21000000000004,-270.06886103515626,-117.5L1872.569938964844,-1354.7048Z" fill="url(#master_svg2_60_9009)" fill-opacity="1"/><path d="M1872.569938964844,-1354.7048C1893.8499389648437,-1366.99236,1901.1999389648436,-1371.23646,1909.009938964844,-1372.89762C1915.9299389648436,-1374.36746,1923.069938964844,-1374.36746,1929.9899389648435,-1372.89762C1937.799938964844,-1371.23645,1945.1499389648438,-1366.99236,1966.4299389648436,-1354.7048L4109.0699389648435,-117.5C4130.349938964844,-105.21000000000004,4137.699938964844,-100.97000000000003,4143.039938964844,-95.02999999999997C4147.769938964844,-89.77999999999997,4151.349938964844,-83.58999999999992,4153.5299389648435,-76.86999999999989C4155.999938964844,-69.26999999999998,4155.999938964844,-60.77999999999997,4155.999938964844,-36.200000000000045L4155.999938964844,2438.2C4155.999938964844,2462.78,4155.999938964844,2471.27,4153.5299389648435,2478.87C4151.349938964844,2485.59,4147.769938964844,2491.78,4143.039938964844,2497.03C4137.699938964844,2502.97,4130.349938964844,2507.21,4109.0699389648435,2519.5L1966.4299389648436,3756.7C1945.1499389648438,3768.99,1937.799938964844,3773.24,1929.9899389648435,3774.8999999999996C1923.069938964844,3776.37,1915.9299389648436,3776.37,1909.009938964844,3774.8999999999996C1901.1999389648436,3773.24,1893.8499389648437,3768.99,1872.569938964844,3756.7L-270.06876103515623,2519.5C-291.34876103515626,2507.21,-298.69886103515626,2502.97,-304.04446103515625,2497.03C-308.77421103515627,2491.78,-312.34708103515624,2485.59,-314.5313210351562,2478.87C-316.99998407105625,2471.27,-316.99998407105625,2462.78,-316.99998407105625,2438.2L-317.00006103515625,-36.200000000000045C-317.00006103515625,-60.77999999999997,-317.00006103515625,-69.26999999999998,-314.53140103515625,-76.86999999999989C-312.34712103515625,-83.58999999999992,-308.7742510351562,-89.77999999999997,-304.04446103515625,-95.02999999999997C-298.69896103515623,-100.97000000000003,-291.34886103515623,-105.21000000000004,-270.06886103515626,-117.5L1872.569938964844,-1354.7048Z" fill="url(#master_svg3_60_9010)" fill-opacity="1"/><path d="M1872.569938964844,-1354.7048C1893.8499389648437,-1366.99236,1901.1999389648436,-1371.23646,1909.009938964844,-1372.89762C1915.9299389648436,-1374.36746,1923.069938964844,-1374.36746,1929.9899389648435,-1372.89762C1937.799938964844,-1371.23645,1945.1499389648438,-1366.99236,1966.4299389648436,-1354.7048L4109.0699389648435,-117.5C4130.349938964844,-105.21000000000004,4137.699938964844,-100.97000000000003,4143.039938964844,-95.02999999999997C4147.769938964844,-89.77999999999997,4151.349938964844,-83.58999999999992,4153.5299389648435,-76.86999999999989C4155.999938964844,-69.26999999999998,4155.999938964844,-60.77999999999997,4155.999938964844,-36.200000000000045L4155.999938964844,2438.2C4155.999938964844,2462.78,4155.999938964844,2471.27,4153.5299389648435,2478.87C4151.349938964844,2485.59,4147.769938964844,2491.78,4143.039938964844,2497.03C4137.699938964844,2502.97,4130.349938964844,2507.21,4109.0699389648435,2519.5L1966.4299389648436,3756.7C1945.1499389648438,3768.99,1937.799938964844,3773.24,1929.9899389648435,3774.8999999999996C1923.069938964844,3776.37,1915.9299389648436,3776.37,1909.009938964844,3774.8999999999996C1901.1999389648436,3773.24,1893.8499389648437,3768.99,1872.569938964844,3756.7L-270.06876103515623,2519.5C-291.34876103515626,2507.21,-298.69886103515626,2502.97,-304.04446103515625,2497.03C-308.77421103515627,2491.78,-312.34708103515624,2485.59,-314.5313210351562,2478.87C-316.99998407105625,2471.27,-316.99998407105625,2462.78,-316.99998407105625,2438.2L-317.00006103515625,-36.200000000000045C-317.00006103515625,-60.77999999999997,-317.00006103515625,-69.26999999999998,-314.53140103515625,-76.86999999999989C-312.34712103515625,-83.58999999999992,-308.7742510351562,-89.77999999999997,-304.04446103515625,-95.02999999999997C-298.69896103515623,-100.97000000000003,-291.34886103515623,-105.21000000000004,-270.06886103515626,-117.5L1872.569938964844,-1354.7048ZM-125.00006103515625,20.440000000000055L1919.4999389648438,-1160.095L3963.9999389648438,20.440000000000055L3963.9999389648438,2381.56L1919.4999389648438,3562.09L-125.00006103515625,2381.56L-125.00006103515625,20.440000000000055Z" fill-rule="evenodd" fill="#FFFFFF" fill-opacity="0.3499999940395355"/></g><g style="opacity:0.6000000238418579;" filter="url(#master_svg4_62_21376)"><path d="M1881.98,-897.1667C1899.45,-907.24966,1905.48,-910.73228,1911.89,-912.095407C1917.57,-913.301531,1923.43,-913.301531,1929.11,-912.095406C1935.52,-910.73228,1941.55,-907.24965,1959.02,-897.1667L3717.48,118.05999999999995C3734.95,128.1400000000001,3740.98,131.6300000000001,3745.37,136.5C3749.25,140.80999999999995,3752.18,145.8900000000001,3753.97,151.41000000000008C3756,157.6400000000001,3756,164.6099999999999,3756,184.76999999999998L3756,2215.23C3756,2235.39,3756,2242.36,3753.97,2248.59C3752.18,2254.11,3749.25,2259.19,3745.37,2263.5C3740.98,2268.37,3734.95,2271.86,3717.48,2281.94L1959.02,3297.17C1941.55,3307.25,1935.52,3310.7299999999996,1929.11,3312.1000000000004C1923.43,3313.3,1917.57,3313.3,1911.89,3312.1000000000004C1905.48,3310.7299999999996,1899.45,3307.25,1881.98,3297.17L123.5166,2281.94C106.05199999999999,2271.86,100.0198,2268.37,95.6327,2263.5C91.75097,2259.19,88.81871,2254.11,87.0261,2248.59C85.0000631646,2242.36,85.0000631646,2235.39,85.0000631646,2215.23L85,184.76999999999998C85,164.6099999999999,85,157.6400000000001,87.02604,151.41000000000008C88.81868,145.8900000000001,91.75094,140.80999999999995,95.6327,136.5C100.0198,131.6300000000001,106.05199999999999,128.1400000000001,123.51650000000001,118.05999999999995L1881.98,-897.1667Z" fill="url(#master_svg5_60_9009)" fill-opacity="1"/><path d="M1881.98,-897.1667C1899.45,-907.24966,1905.48,-910.73228,1911.89,-912.095407C1917.57,-913.301531,1923.43,-913.301531,1929.11,-912.095406C1935.52,-910.73228,1941.55,-907.24965,1959.02,-897.1667L3717.48,118.05999999999995C3734.95,128.1400000000001,3740.98,131.6300000000001,3745.37,136.5C3749.25,140.80999999999995,3752.18,145.8900000000001,3753.97,151.41000000000008C3756,157.6400000000001,3756,164.6099999999999,3756,184.76999999999998L3756,2215.23C3756,2235.39,3756,2242.36,3753.97,2248.59C3752.18,2254.11,3749.25,2259.19,3745.37,2263.5C3740.98,2268.37,3734.95,2271.86,3717.48,2281.94L1959.02,3297.17C1941.55,3307.25,1935.52,3310.7299999999996,1929.11,3312.1000000000004C1923.43,3313.3,1917.57,3313.3,1911.89,3312.1000000000004C1905.48,3310.7299999999996,1899.45,3307.25,1881.98,3297.17L123.5166,2281.94C106.05199999999999,2271.86,100.0198,2268.37,95.6327,2263.5C91.75097,2259.19,88.81871,2254.11,87.0261,2248.59C85.0000631646,2242.36,85.0000631646,2235.39,85.0000631646,2215.23L85,184.76999999999998C85,164.6099999999999,85,157.6400000000001,87.02604,151.41000000000008C88.81868,145.8900000000001,91.75094,140.80999999999995,95.6327,136.5C100.0198,131.6300000000001,106.05199999999999,128.1400000000001,123.51650000000001,118.05999999999995L1881.98,-897.1667Z" fill="url(#master_svg6_60_9010)" fill-opacity="1"/><path d="M1881.98,-897.1667C1899.45,-907.24966,1905.48,-910.73228,1911.89,-912.095407C1917.57,-913.301531,1923.43,-913.301531,1929.11,-912.095406C1935.52,-910.73228,1941.55,-907.24965,1959.02,-897.1667L3717.48,118.05999999999995C3734.95,128.1400000000001,3740.98,131.6300000000001,3745.37,136.5C3749.25,140.80999999999995,3752.18,145.8900000000001,3753.97,151.41000000000008C3756,157.6400000000001,3756,164.6099999999999,3756,184.76999999999998L3756,2215.23C3756,2235.39,3756,2242.36,3753.97,2248.59C3752.18,2254.11,3749.25,2259.19,3745.37,2263.5C3740.98,2268.37,3734.95,2271.86,3717.48,2281.94L1959.02,3297.17C1941.55,3307.25,1935.52,3310.7299999999996,1929.11,3312.1000000000004C1923.43,3313.3,1917.57,3313.3,1911.89,3312.1000000000004C1905.48,3310.7299999999996,1899.45,3307.25,1881.98,3297.17L123.5166,2281.94C106.05199999999999,2271.86,100.0198,2268.37,95.6327,2263.5C91.75097,2259.19,88.81871,2254.11,87.0261,2248.59C85.0000631646,2242.36,85.0000631646,2235.39,85.0000631646,2215.23L85,184.76999999999998C85,164.6099999999999,85,157.6400000000001,87.02604,151.41000000000008C88.81868,145.8900000000001,91.75094,140.80999999999995,95.6327,136.5C100.0198,131.6300000000001,106.05199999999999,128.1400000000001,123.51650000000001,118.05999999999995L1881.98,-897.1667ZM277,251.1500000000001L1920.5,-697.703L3564,251.1500000000001L3564,2148.85L1920.5,3097.7L277,2148.85L277,251.1500000000001Z" fill-rule="evenodd" fill="#FFFFFF" fill-opacity="0.3499999940395355"/></g><g style="opacity:0.699999988079071;" filter="url(#master_svg7_62_21375)"><path d="M1888.84,-496.1903C1902.97,-504.34775,1907.85,-507.16533,1913.04,-508.268149C1917.63,-509.243951,1922.37,-509.24395,1926.96,-508.268148C1932.15,-507.16533,1937.03,-504.34774,1951.16,-496.1902L3373.84,325.169C3387.97,333.326,3392.85,336.144,3396.4,340.086C3399.54,343.57399999999996,3401.91,347.682,3403.36,352.14599999999996C3405,357.19100000000003,3405,362.826,3405,379.14099999999996L3405,2021.8600000000001C3405,2038.17,3405,2043.81,3403.36,2048.85C3401.91,2053.32,3399.54,2057.43,3396.4,2060.91C3392.85,2064.86,3387.97,2067.67,3373.84,2075.83L1951.16,2897.19C1937.03,2905.35,1932.15,2908.17,1926.96,2909.27C1922.37,2910.24,1917.63,2910.24,1913.04,2909.27C1907.85,2908.17,1902.97,2905.35,1888.84,2897.19L466.1616,2075.83C452.032,2067.67,447.1517,2064.86,443.60234,2060.91C440.46183,2057.43,438.08951,2053.32,436.6392,2048.85C435.0000511029,2043.81,435.0000511029,2038.17,435.0000511029,2021.8600000000001L435,379.14099999999996C435,362.826,435,357.19100000000003,436.63915,352.14599999999996C438.08948,347.682,440.46181,343.57399999999996,443.60229,340.086C447.1516,336.144,452.032,333.326,466.1616,325.169L1888.84,-496.1903Z" fill="url(#master_svg8_60_9009)" fill-opacity="1"/><path d="M1888.84,-496.1903C1902.97,-504.34775,1907.85,-507.16533,1913.04,-508.268149C1917.63,-509.243951,1922.37,-509.24395,1926.96,-508.268148C1932.15,-507.16533,1937.03,-504.34774,1951.16,-496.1902L3373.84,325.169C3387.97,333.326,3392.85,336.144,3396.4,340.086C3399.54,343.57399999999996,3401.91,347.682,3403.36,352.14599999999996C3405,357.19100000000003,3405,362.826,3405,379.14099999999996L3405,2021.8600000000001C3405,2038.17,3405,2043.81,3403.36,2048.85C3401.91,2053.32,3399.54,2057.43,3396.4,2060.91C3392.85,2064.86,3387.97,2067.67,3373.84,2075.83L1951.16,2897.19C1937.03,2905.35,1932.15,2908.17,1926.96,2909.27C1922.37,2910.24,1917.63,2910.24,1913.04,2909.27C1907.85,2908.17,1902.97,2905.35,1888.84,2897.19L466.1616,2075.83C452.032,2067.67,447.1517,2064.86,443.60234,2060.91C440.46183,2057.43,438.08951,2053.32,436.6392,2048.85C435.0000511029,2043.81,435.0000511029,2038.17,435.0000511029,2021.8600000000001L435,379.14099999999996C435,362.826,435,357.19100000000003,436.63915,352.14599999999996C438.08948,347.682,440.46181,343.57399999999996,443.60229,340.086C447.1516,336.144,452.032,333.326,466.1616,325.169L1888.84,-496.1903Z" fill="url(#master_svg9_60_9010)" fill-opacity="1"/><path d="M1888.84,-496.1903C1902.97,-504.34775,1907.85,-507.16533,1913.04,-508.268149C1917.63,-509.243951,1922.37,-509.24395,1926.96,-508.268148C1932.15,-507.16533,1937.03,-504.34774,1951.16,-496.1902L3373.84,325.169C3387.97,333.326,3392.85,336.144,3396.4,340.086C3399.54,343.57399999999996,3401.91,347.682,3403.36,352.14599999999996C3405,357.19100000000003,3405,362.826,3405,379.14099999999996L3405,2021.8600000000001C3405,2038.17,3405,2043.81,3403.36,2048.85C3401.91,2053.32,3399.54,2057.43,3396.4,2060.91C3392.85,2064.86,3387.97,2067.67,3373.84,2075.83L1951.16,2897.19C1937.03,2905.35,1932.15,2908.17,1926.96,2909.27C1922.37,2910.24,1917.63,2910.24,1913.04,2909.27C1907.85,2908.17,1902.97,2905.35,1888.84,2897.19L466.1616,2075.83C452.032,2067.67,447.1517,2064.86,443.60234,2060.91C440.46183,2057.43,438.08951,2053.32,436.6392,2048.85C435.0000511029,2043.81,435.0000511029,2038.17,435.0000511029,2021.8600000000001L435,379.14099999999996C435,362.826,435,357.19100000000003,436.63915,352.14599999999996C438.08948,347.682,440.46181,343.57399999999996,443.60229,340.086C447.1516,336.144,452.032,333.326,466.1616,325.169L1888.84,-496.1903ZM627,454.01199999999994L1920,-292.48L3213,454.01199999999994L3213,1946.9899999999998L1920,2693.48L627,1946.9899999999998L627,454.01199999999994Z" fill-rule="evenodd" fill="#FFFFFF" fill-opacity="0.3499999940395355"/></g><g style="opacity:0.800000011920929;" filter="url(#master_svga_62_21374)"><path d="M1896.18,-96.21003999999999C1906.98,-102.44448,1910.71,-104.59784,1914.68,-105.440677C1918.19,-106.186441,1921.81,-106.186441,1925.32,-105.440676C1929.29,-104.59784,1933.02,-102.44447,1943.82,-96.21003999999999L3031.18,531.521C3041.98,537.755,3045.71,539.909,3048.43,542.921C3050.83,545.587,3052.64,548.727,3053.75,552.138C3055,555.994,3055,560.3,3055,572.769L3055,1828.23C3055,1840.7,3055,1845.01,3053.75,1848.86C3052.64,1852.27,3050.83,1855.41,3048.43,1858.08C3045.71,1861.09,3041.98,1863.24,3031.18,1869.48L1943.82,2497.21C1933.02,2503.44,1929.29,2505.6,1925.32,2506.44C1921.81,2507.19,1918.19,2507.19,1914.68,2506.44C1910.71,2505.6,1906.98,2503.44,1896.18,2497.21L808.8171,1869.48C798.0177,1863.24,794.28766,1861.09,791.57485,1858.08C789.17453,1855.41,787.36134,1852.27,786.25286,1848.86C785.0000390585,1845.01,785.0000390585,1840.7,785.0000390585,1828.23L785,572.769C785,560.3,785,555.994,786.25282,552.138C787.36132,548.727,789.17451,545.587,791.57481,542.921C794.28762,539.909,798.0177,537.755,808.8171,531.521L1896.18,-96.21003999999999Z" fill="url(#master_svgb_60_9009)" fill-opacity="1"/><path d="M1896.18,-96.21003999999999C1906.98,-102.44448,1910.71,-104.59784,1914.68,-105.440677C1918.19,-106.186441,1921.81,-106.186441,1925.32,-105.440676C1929.29,-104.59784,1933.02,-102.44447,1943.82,-96.21003999999999L3031.18,531.521C3041.98,537.755,3045.71,539.909,3048.43,542.921C3050.83,545.587,3052.64,548.727,3053.75,552.138C3055,555.994,3055,560.3,3055,572.769L3055,1828.23C3055,1840.7,3055,1845.01,3053.75,1848.86C3052.64,1852.27,3050.83,1855.41,3048.43,1858.08C3045.71,1861.09,3041.98,1863.24,3031.18,1869.48L1943.82,2497.21C1933.02,2503.44,1929.29,2505.6,1925.32,2506.44C1921.81,2507.19,1918.19,2507.19,1914.68,2506.44C1910.71,2505.6,1906.98,2503.44,1896.18,2497.21L808.8171,1869.48C798.0177,1863.24,794.28766,1861.09,791.57485,1858.08C789.17453,1855.41,787.36134,1852.27,786.25286,1848.86C785.0000390585,1845.01,785.0000390585,1840.7,785.0000390585,1828.23L785,572.769C785,560.3,785,555.994,786.25282,552.138C787.36132,548.727,789.17451,545.587,791.57481,542.921C794.28762,539.909,798.0177,537.755,808.8171,531.521L1896.18,-96.21003999999999Z" fill="url(#master_svgc_60_9010)" fill-opacity="1"/><path d="M1896.18,-96.21003999999999C1906.98,-102.44448,1910.71,-104.59784,1914.68,-105.440677C1918.19,-106.186441,1921.81,-106.186441,1925.32,-105.440676C1929.29,-104.59784,1933.02,-102.44447,1943.82,-96.21003999999999L3031.18,531.521C3041.98,537.755,3045.71,539.909,3048.43,542.921C3050.83,545.587,3052.64,548.727,3053.75,552.138C3055,555.994,3055,560.3,3055,572.769L3055,1828.23C3055,1840.7,3055,1845.01,3053.75,1848.86C3052.64,1852.27,3050.83,1855.41,3048.43,1858.08C3045.71,1861.09,3041.98,1863.24,3031.18,1869.48L1943.82,2497.21C1933.02,2503.44,1929.29,2505.6,1925.32,2506.44C1921.81,2507.19,1918.19,2507.19,1914.68,2506.44C1910.71,2505.6,1906.98,2503.44,1896.18,2497.21L808.8171,1869.48C798.0177,1863.24,794.28766,1861.09,791.57485,1858.08C789.17453,1855.41,787.36134,1852.27,786.25286,1848.86C785.0000390585,1845.01,785.0000390585,1840.7,785.0000390585,1828.23L785,572.769C785,560.3,785,555.994,786.25282,552.138C787.36132,548.727,789.17451,545.587,791.57481,542.921C794.28762,539.909,798.0177,537.755,808.8171,531.521L1896.18,-96.21003999999999ZM977,656.127L1920,111.738L2863,656.127L2863,1744.87L1920,2289.26L977,1744.87L977,656.127Z" fill-rule="evenodd" fill="#FFFFFF" fill-opacity="0.3499999940395355"/></g><g style="opacity:0.8999999761581421;" filter="url(#master_svgd_62_21373)"><path d="M1903.44,306.74395C1910.879,302.44927,1913.4479999999999,300.965899,1916.1799999999998,300.385297C1918.597,299.871567,1921.095,299.871567,1923.513,300.385298C1926.2440000000001,300.965899,1928.8139999999999,302.44927,1936.2530000000002,306.74395L2685.29,739.165C2692.73,743.4590000000001,2695.29,744.943,2697.16,747.018C2698.8199999999997,748.854,2700.0699999999997,751.017,2700.83,753.367C2701.69,756.023,2701.69,758.99,2701.69,767.579L2701.69,1632.42C2701.69,1641.01,2701.69,1643.98,2700.83,1646.63C2700.0699999999997,1648.98,2698.8199999999997,1651.15,2697.16,1652.98C2695.29,1655.06,2692.73,1656.54,2685.29,1660.84L1936.2530000000002,2093.26C1928.8139999999999,2097.55,1926.2440000000001,2099.0299999999997,1923.513,2099.6099999999997C1921.095,2100.13,1918.597,2100.13,1916.1799999999998,2099.6099999999997C1913.4479999999999,2099.0299999999997,1910.879,2097.55,1903.44,2093.26L1154.4065,1660.84C1146.96729,1656.54,1144.39782,1655.06,1142.52909,1652.98C1140.87563,1651.15,1139.62661,1648.98,1138.863034,1646.63C1138.0000269055,1643.98,1138.0000269055,1641.01,1138.0000269055,1632.42L1138,767.579C1138,758.99,1138,756.023,1138.863007,753.367C1139.6266,751.017,1140.87562,748.854,1142.52907,747.018C1144.39779,744.943,1146.96726,743.4590000000001,1154.4064,739.165L1903.44,306.74395Z" fill="url(#master_svge_60_9009)" fill-opacity="1"/><path d="M1903.44,306.74395C1910.879,302.44927,1913.4479999999999,300.965899,1916.1799999999998,300.385297C1918.597,299.871567,1921.095,299.871567,1923.513,300.385298C1926.2440000000001,300.965899,1928.8139999999999,302.44927,1936.2530000000002,306.74395L2685.29,739.165C2692.73,743.4590000000001,2695.29,744.943,2697.16,747.018C2698.8199999999997,748.854,2700.0699999999997,751.017,2700.83,753.367C2701.69,756.023,2701.69,758.99,2701.69,767.579L2701.69,1632.42C2701.69,1641.01,2701.69,1643.98,2700.83,1646.63C2700.0699999999997,1648.98,2698.8199999999997,1651.15,2697.16,1652.98C2695.29,1655.06,2692.73,1656.54,2685.29,1660.84L1936.2530000000002,2093.26C1928.8139999999999,2097.55,1926.2440000000001,2099.0299999999997,1923.513,2099.6099999999997C1921.095,2100.13,1918.597,2100.13,1916.1799999999998,2099.6099999999997C1913.4479999999999,2099.0299999999997,1910.879,2097.55,1903.44,2093.26L1154.4065,1660.84C1146.96729,1656.54,1144.39782,1655.06,1142.52909,1652.98C1140.87563,1651.15,1139.62661,1648.98,1138.863034,1646.63C1138.0000269055,1643.98,1138.0000269055,1641.01,1138.0000269055,1632.42L1138,767.579C1138,758.99,1138,756.023,1138.863007,753.367C1139.6266,751.017,1140.87562,748.854,1142.52907,747.018C1144.39779,744.943,1146.96726,743.4590000000001,1154.4064,739.165L1903.44,306.74395Z" fill="url(#master_svgf_60_9010)" fill-opacity="1"/><path d="M1903.44,306.74395C1910.879,302.44927,1913.4479999999999,300.965899,1916.1799999999998,300.385297C1918.597,299.871567,1921.095,299.871567,1923.513,300.385298C1926.2440000000001,300.965899,1928.8139999999999,302.44927,1936.2530000000002,306.74395L2685.29,739.165C2692.73,743.4590000000001,2695.29,744.943,2697.16,747.018C2698.8199999999997,748.854,2700.0699999999997,751.017,2700.83,753.367C2701.69,756.023,2701.69,758.99,2701.69,767.579L2701.69,1632.42C2701.69,1641.01,2701.69,1643.98,2700.83,1646.63C2700.0699999999997,1648.98,2698.8199999999997,1651.15,2697.16,1652.98C2695.29,1655.06,2692.73,1656.54,2685.29,1660.84L1936.2530000000002,2093.26C1928.8139999999999,2097.55,1926.2440000000001,2099.0299999999997,1923.513,2099.6099999999997C1921.095,2100.13,1918.597,2100.13,1916.1799999999998,2099.6099999999997C1913.4479999999999,2099.0299999999997,1910.879,2097.55,1903.44,2093.26L1154.4065,1660.84C1146.96729,1656.54,1144.39782,1655.06,1142.52909,1652.98C1140.87563,1651.15,1139.62661,1648.98,1138.863034,1646.63C1138.0000269055,1643.98,1138.0000269055,1641.01,1138.0000269055,1632.42L1138,767.579C1138,758.99,1138,756.023,1138.863007,753.367C1139.6266,751.017,1140.87562,748.854,1142.52907,747.018C1144.39779,744.943,1146.96726,743.4590000000001,1154.4064,739.165L1903.44,306.74395ZM1330,859.492L1919.846,518.971L2509.69,859.492L2509.69,1540.51L1919.846,1881.03L1330,1540.51L1330,859.492Z" fill-rule="evenodd" fill="#FFFFFF" fill-opacity="0.3499999940395355"/></g><g clip-path="url(#master_svgg_62_15829)"><g filter="url(#master_svgh_62_15882)"><path d="M1911.662,723.59201C1915.624,721.30455,1916.993,720.514464,1918.4470000000001,720.20522C1919.7350000000001,719.9315932,1921.065,719.9315934,1922.353,720.20522C1923.807,720.514464,1925.176,721.30455,1929.138,723.59201L2328.062,953.9110000000001C2332.024,956.1990000000001,2333.393,956.989,2334.388,958.094C2335.268,959.072,2335.934,960.2239999999999,2336.34,961.476C2336.8,962.89,2336.8,964.471,2336.8,969.045L2336.8,1429.684C2336.8,1434.258,2336.8,1435.839,2336.34,1437.2530000000002C2335.934,1438.505,2335.268,1439.6570000000002,2334.388,1440.635C2333.393,1441.74,2332.024,1442.53,2328.062,1444.818L1929.138,1675.137C1925.176,1677.424,1923.807,1678.2150000000001,1922.353,1678.524C1921.065,1678.797,1919.7350000000001,1678.797,1918.4470000000001,1678.524C1916.993,1678.2150000000001,1915.624,1677.424,1911.662,1675.137L1512.73785,1444.818C1508.77585,1442.53,1507.40738,1441.74,1506.41213,1440.635C1505.53152,1439.6570000000002,1504.86631,1438.505,1504.459639,1437.2530000000002C1504.0000143295,1435.839,1504.0000143295,1434.258,1504.0000143295,1429.684L1504,969.045C1504,964.471,1504,962.89,1504.459625,961.476C1504.866303,960.2239999999999,1505.53151,959.072,1506.41212,958.094C1507.40737,956.989,1508.77583,956.1990000000001,1512.73783,953.9110000000001L1911.662,723.59201Z" fill="url(#master_svgi_60_9009)" fill-opacity="1"/><path d="M1911.662,723.59201C1915.624,721.30455,1916.993,720.514464,1918.4470000000001,720.20522C1919.7350000000001,719.9315932,1921.065,719.9315934,1922.353,720.20522C1923.807,720.514464,1925.176,721.30455,1929.138,723.59201L2328.062,953.9110000000001C2332.024,956.1990000000001,2333.393,956.989,2334.388,958.094C2335.268,959.072,2335.934,960.2239999999999,2336.34,961.476C2336.8,962.89,2336.8,964.471,2336.8,969.045L2336.8,1429.684C2336.8,1434.258,2336.8,1435.839,2336.34,1437.2530000000002C2335.934,1438.505,2335.268,1439.6570000000002,2334.388,1440.635C2333.393,1441.74,2332.024,1442.53,2328.062,1444.818L1929.138,1675.137C1925.176,1677.424,1923.807,1678.2150000000001,1922.353,1678.524C1921.065,1678.797,1919.7350000000001,1678.797,1918.4470000000001,1678.524C1916.993,1678.2150000000001,1915.624,1677.424,1911.662,1675.137L1512.73785,1444.818C1508.77585,1442.53,1507.40738,1441.74,1506.41213,1440.635C1505.53152,1439.6570000000002,1504.86631,1438.505,1504.459639,1437.2530000000002C1504.0000143295,1435.839,1504.0000143295,1434.258,1504.0000143295,1429.684L1504,969.045C1504,964.471,1504,962.89,1504.459625,961.476C1504.866303,960.2239999999999,1505.53151,959.072,1506.41212,958.094C1507.40737,956.989,1508.77583,956.1990000000001,1512.73783,953.9110000000001L1911.662,723.59201Z" fill="url(#master_svgj_60_9010)" fill-opacity="1"/><path d="M1911.662,723.59201C1915.624,721.30455,1916.993,720.514464,1918.4470000000001,720.20522C1919.7350000000001,719.9315932,1921.065,719.9315934,1922.353,720.20522C1923.807,720.514464,1925.176,721.30455,1929.138,723.59201L2328.062,953.9110000000001C2332.024,956.1990000000001,2333.393,956.989,2334.388,958.094C2335.268,959.072,2335.934,960.2239999999999,2336.34,961.476C2336.8,962.89,2336.8,964.471,2336.8,969.045L2336.8,1429.684C2336.8,1434.258,2336.8,1435.839,2336.34,1437.2530000000002C2335.934,1438.505,2335.268,1439.6570000000002,2334.388,1440.635C2333.393,1441.74,2332.024,1442.53,2328.062,1444.818L1929.138,1675.137C1925.176,1677.424,1923.807,1678.2150000000001,1922.353,1678.524C1921.065,1678.797,1919.7350000000001,1678.797,1918.4470000000001,1678.524C1916.993,1678.2150000000001,1915.624,1677.424,1911.662,1675.137L1512.73785,1444.818C1508.77585,1442.53,1507.40738,1441.74,1506.41213,1440.635C1505.53152,1439.6570000000002,1504.86631,1438.505,1504.459639,1437.2530000000002C1504.0000143295,1435.839,1504.0000143295,1434.258,1504.0000143295,1429.684L1504,969.045C1504,964.471,1504,962.89,1504.459625,961.476C1504.866303,960.2239999999999,1505.53151,959.072,1506.41212,958.094C1507.40737,956.989,1508.77583,956.1990000000001,1512.73783,953.9110000000001L1911.662,723.59201ZM1696,1069.807L1920.4,940.25L2144.8,1069.807L2144.8,1328.922L1920.4,1458.479L1696,1328.922L1696,1069.807Z" fill-rule="evenodd" fill="#FFFFFF" fill-opacity="0.3499999940395355"/></g><g clip-path="url(#master_svgk_62_15837)"><g filter="url(#master_svgl_62_15838)"><g><path d="M1962,932C2034.6,932,2107.2,932,2182,932C2182,1004.6,2182,1077.2,2182,1152C2167.48,1152,2152.96,1152,2138,1152C2138,1166.52,2138,1181.04,2138,1196C2123.48,1196,2108.96,1196,2094,1196C2094,1210.52,2094,1225.04,2094,1240C2079.48,1240,2064.96,1240,2050,1240C2050,1254.52,2050,1269.04,2050,1284C2035.48,1284,2020.96,1284,2006,1284C2006,1298.52,2006,1313.04,2006,1328C1991.48,1328,1976.96,1328,1962,1328C1962,1342.52,1962,1357.04,1962,1372C1947.48,1372,1932.96,1372,1918,1372C1918,1386.52,1918,1401.04,1918,1416C1903.48,1416,1888.96,1416,1874,1416C1874,1430.52,1874,1445.04,1874,1460C1859.48,1460,1844.96,1460,1830,1460C1830,1474.52,1830,1489.04,1830,1504C1800.96,1504,1771.92,1504,1742,1504C1742,1489.48,1742,1474.96,1742,1460C1727.48,1460,1712.96,1460,1698,1460C1698,1445.48,1698,1430.96,1698,1416C1683.48,1416,1668.96,1416,1654,1416C1654,1357.92,1654,1299.84,1654,1240C1668.52,1240,1683.04,1240,1698,1240C1698,1225.48,1698,1210.96,1698,1196C1712.52,1196,1727.04,1196,1742,1196C1742,1181.48,1742,1166.96,1742,1152C1756.52,1152,1771.04,1152,1786,1152C1786,1137.48,1786,1122.96,1786,1108C1800.52,1108,1815.04,1108,1830,1108C1830,1093.48,1830,1078.96,1830,1064C1844.52,1064,1859.04,1064,1874,1064C1874,1049.48,1874,1034.96,1874,1020C1888.52,1020,1903.04,1020,1918,1020C1918,1005.48,1918,990.96,1918,976C1932.52,976,1947.04,976,1962,976C1962,961.48,1962,946.96,1962,932Z" fill="#B38EF3" fill-opacity="1" style="mix-blend-mode:passthrough"/></g><g><path d="M1698,1196C1712.52,1196,1727.04,1196,1742,1196C1742,1210.52,1742,1225.04,1742,1240C1771.04,1240,1800.08,1240,1830,1240C1830,1254.52,1830,1269.04,1830,1284C1844.52,1284,1859.04,1284,1874,1284C1874,1313.04,1874,1342.08,1874,1372C1888.52,1372,1903.04,1372,1918,1372C1918,1386.52,1918,1401.04,1918,1416C1903.48,1416,1888.96,1416,1874,1416C1874,1430.52,1874,1445.04,1874,1460C1859.48,1460,1844.96,1460,1830,1460C1830,1474.52,1830,1489.04,1830,1504C1800.96,1504,1771.92,1504,1742,1504C1742,1489.48,1742,1474.96,1742,1460C1727.48,1460,1712.96,1460,1698,1460C1698,1445.48,1698,1430.96,1698,1416C1683.48,1416,1668.96,1416,1654,1416C1654,1357.92,1654,1299.84,1654,1240C1668.52,1240,1683.04,1240,1698,1240C1698,1225.48,1698,1210.96,1698,1196Z" fill="#8D6ACC" fill-opacity="1" style="mix-blend-mode:passthrough"/></g><g><path d="M1962,932C2034.6,932,2107.2,932,2182,932C2182,1004.6,2182,1077.2,2182,1152C2167.48,1152,2152.96,1152,2138,1152C2138,1166.52,2138,1181.04,2138,1196C2123.48,1196,2108.96,1196,2094,1196C2094,1210.52,2094,1225.04,2094,1240C2079.48,1240,2064.96,1240,2050,1240C2050,1254.52,2050,1269.04,2050,1284C2035.48,1284,2020.96,1284,2006,1284C2006,1225.92,2006,1167.84,2006,1108C2035.04,1108,2064.08,1108,2094,1108C2094,1093.48,2094,1078.96,2094,1064C2108.52,1064,2123.04,1064,2138,1064C2138,1034.96,2138,1005.92,2138,976C2079.92,976,2021.84,976,1962,976C1962,961.48,1962,946.96,1962,932Z" fill="#6F4FAB" fill-opacity="1" style="mix-blend-mode:passthrough"/></g><g><path d="M1830,1064C1859.04,1064,1888.08,1064,1918,1064C1918,1165.64,1918,1267.28,1918,1372C1903.48,1372,1888.96,1372,1874,1372C1874,1342.96,1874,1313.92,1874,1284C1859.48,1284,1844.96,1284,1830,1284C1830,1269.48,1830,1254.96,1830,1240C1800.96,1240,1771.92,1240,1742,1240C1742,1210.96,1742,1181.92,1742,1152C1756.52,1152,1771.04,1152,1786,1152C1786,1137.48,1786,1122.96,1786,1108C1800.52,1108,1815.04,1108,1830,1108C1830,1093.48,1830,1078.96,1830,1064Z" fill="#CFA0F3" fill-opacity="1" style="mix-blend-mode:passthrough"/></g><g><path d="M1654,1284C1668.52,1284,1683.04,1284,1698,1284C1698,1298.52,1698,1313.04,1698,1328C1741.56,1328,1785.12,1328,1830,1328C1830,1357.04,1830,1386.08,1830,1416C1815.48,1416,1800.96,1416,1786,1416C1786,1430.52,1786,1445.04,1786,1460C1800.52,1460,1815.04,1460,1830,1460C1830,1474.52,1830,1489.04,1830,1504C1800.96,1504,1771.92,1504,1742,1504C1742,1489.48,1742,1474.96,1742,1460C1727.48,1460,1712.96,1460,1698,1460C1698,1445.48,1698,1430.96,1698,1416C1683.48,1416,1668.96,1416,1654,1416C1654,1372.44,1654,1328.88,1654,1284Z" fill="#54398A" fill-opacity="1" style="mix-blend-mode:passthrough"/></g><g><path d="M1962,976C2020.08,976,2078.16,976,2138,976C2138,1005.04,2138,1034.08,2138,1064C2123.48,1064,2108.96,1064,2094,1064C2094,1078.52,2094,1093.04,2094,1108C2064.96,1108,2035.92,1108,2006,1108C2006,1093.48,2006,1078.96,2006,1064C1991.48,1064,1976.96,1064,1962,1064C1962,1034.96,1962,1005.92,1962,976Z" fill="#FECBE6" fill-opacity="1" style="mix-blend-mode:passthrough"/></g><g><path d="M1962,932C2034.6,932,2107.2,932,2182,932C2182,1004.6,2182,1077.2,2182,1152C2167.48,1152,2152.96,1152,2138,1152C2138,1093.92,2138,1035.84,2138,976C2079.92,976,2021.84,976,1962,976C1962,961.48,1962,946.96,1962,932Z" fill="#6F4FAB" fill-opacity="1" style="mix-blend-mode:passthrough"/></g><g><path d="M1874,1064C1888.52,1064,1903.04,1064,1918,1064C1918,1165.64,1918,1267.28,1918,1372C1903.48,1372,1888.96,1372,1874,1372C1874,1342.96,1874,1313.92,1874,1284C1859.48,1284,1844.96,1284,1830,1284C1830,1269.48,1830,1254.96,1830,1240C1844.52,1240,1859.04,1240,1874,1240C1874,1181.92,1874,1123.84,1874,1064Z" fill="#B38EF3" fill-opacity="1" style="mix-blend-mode:passthrough"/></g><g><path d="M1698,1196C1712.52,1196,1727.04,1196,1742,1196C1742,1210.52,1742,1225.04,1742,1240C1771.04,1240,1800.08,1240,1830,1240C1830,1254.52,1830,1269.04,1830,1284C1815.48,1284,1800.96,1284,1786,1284C1786,1298.52,1786,1313.04,1786,1328C1756.96,1328,1727.92,1328,1698,1328C1698,1313.48,1698,1298.96,1698,1284C1683.48,1284,1668.96,1284,1654,1284C1654,1269.48,1654,1254.96,1654,1240C1668.52,1240,1683.04,1240,1698,1240C1698,1225.48,1698,1210.96,1698,1196Z" fill="#8D6ACC" fill-opacity="1" style="mix-blend-mode:passthrough"/></g><g><path d="M1918,1196C1932.52,1196,1947.04,1196,1962,1196C1962,1225.04,1962,1254.08,1962,1284C1976.52,1284,1991.04,1284,2006,1284C2006,1298.52,2006,1313.04,2006,1328C1991.48,1328,1976.96,1328,1962,1328C1962,1342.52,1962,1357.04,1962,1372C1947.48,1372,1932.96,1372,1918,1372C1918,1313.92,1918,1255.84,1918,1196Z" fill="#6F4FAB" fill-opacity="1" style="mix-blend-mode:passthrough"/></g><g><path d="M2094,1064C2108.52,1064,2123.04,1064,2138,1064C2138,1107.56,2138,1151.12,2138,1196C2108.96,1196,2079.92,1196,2050,1196C2050,1166.96,2050,1137.92,2050,1108C2064.52,1108,2079.04,1108,2094,1108C2094,1093.48,2094,1078.96,2094,1064Z" fill="#8D6ACC" fill-opacity="1" style="mix-blend-mode:passthrough"/></g><g><path d="M1742,1152C1771.04,1152,1800.08,1152,1830,1152C1830,1181.04,1830,1210.08,1830,1240C1800.96,1240,1771.92,1240,1742,1240C1742,1210.96,1742,1181.92,1742,1152Z" fill="#B38EF3" fill-opacity="1" style="mix-blend-mode:passthrough"/></g><g><path d="M1874,1064C1888.52,1064,1903.04,1064,1918,1064C1918,1122.08,1918,1180.16,1918,1240C1903.48,1240,1888.96,1240,1874,1240C1874,1181.92,1874,1123.84,1874,1064Z" fill="#FECBE6" fill-opacity="1" style="mix-blend-mode:passthrough"/></g><g><path d="M2138,976C2152.52,976,2167.04,976,2182,976C2182,1034.08,2182,1092.16,2182,1152C2167.48,1152,2152.96,1152,2138,1152C2138,1093.92,2138,1035.84,2138,976Z" fill="#54398A" fill-opacity="1" style="mix-blend-mode:passthrough"/></g><g><path d="M1962,1152C1976.52,1152,1991.04,1152,2006,1152C2006,1195.56,2006,1239.12,2006,1284C1991.48,1284,1976.96,1284,1962,1284C1962,1240.44,1962,1196.88,1962,1152Z" fill="#8D6ACC" fill-opacity="1" style="mix-blend-mode:passthrough"/></g><g><path d="M1742,1460C1771.04,1460,1800.08,1460,1830,1460C1830,1474.52,1830,1489.04,1830,1504C1800.96,1504,1771.92,1504,1742,1504C1742,1489.48,1742,1474.96,1742,1460Z" fill="#6F4FAB" fill-opacity="1" style="mix-blend-mode:passthrough"/></g><g><path d="M1786,1416C1815.04,1416,1844.08,1416,1874,1416C1874,1430.52,1874,1445.04,1874,1460C1844.96,1460,1815.92,1460,1786,1460C1786,1445.48,1786,1430.96,1786,1416Z" fill="#6F4FAB" fill-opacity="1" style="mix-blend-mode:passthrough"/></g><g><path d="M1786,1416C1800.52,1416,1815.04,1416,1830,1416C1830,1430.52,1830,1445.04,1830,1460C1815.48,1460,1800.96,1460,1786,1460C1786,1445.48,1786,1430.96,1786,1416Z" fill="#8D6ACC" fill-opacity="1" style="mix-blend-mode:passthrough"/></g><g><path d="M1874,1372C1888.52,1372,1903.04,1372,1918,1372C1918,1386.52,1918,1401.04,1918,1416C1903.48,1416,1888.96,1416,1874,1416C1874,1401.48,1874,1386.96,1874,1372Z" fill="#54398A" fill-opacity="1" style="mix-blend-mode:passthrough"/></g><g><path d="M1742,1372C1756.52,1372,1771.04,1372,1786,1372C1786,1386.52,1786,1401.04,1786,1416C1771.48,1416,1756.96,1416,1742,1416C1742,1401.48,1742,1386.96,1742,1372Z" fill="#6F4FAB" fill-opacity="1" style="mix-blend-mode:passthrough"/></g><g><path d="M1918,1328C1932.52,1328,1947.04,1328,1962,1328C1962,1342.52,1962,1357.04,1962,1372C1947.48,1372,1932.96,1372,1918,1372C1918,1357.48,1918,1342.96,1918,1328Z" fill="#54398A" fill-opacity="1" style="mix-blend-mode:passthrough"/></g><g><path d="M1786,1328C1800.52,1328,1815.04,1328,1830,1328C1830,1342.52,1830,1357.04,1830,1372C1815.48,1372,1800.96,1372,1786,1372C1786,1357.48,1786,1342.96,1786,1328Z" fill="#6F4FAB" fill-opacity="1" style="mix-blend-mode:passthrough"/></g><g><path d="M1962,1284C1976.52,1284,1991.04,1284,2006,1284C2006,1298.52,2006,1313.04,2006,1328C1991.48,1328,1976.96,1328,1962,1328C1962,1313.48,1962,1298.96,1962,1284Z" fill="#54398A" fill-opacity="1" style="mix-blend-mode:passthrough"/></g><g><path d="M1786,1284C1800.52,1284,1815.04,1284,1830,1284C1830,1298.52,1830,1313.04,1830,1328C1815.48,1328,1800.96,1328,1786,1328C1786,1313.48,1786,1298.96,1786,1284Z" fill="#B38EF3" fill-opacity="1" style="mix-blend-mode:passthrough"/></g><g><path d="M1698,1284C1712.52,1284,1727.04,1284,1742,1284C1742,1298.52,1742,1313.04,1742,1328C1727.48,1328,1712.96,1328,1698,1328C1698,1313.48,1698,1298.96,1698,1284Z" fill="#6F4FAB" fill-opacity="1" style="mix-blend-mode:passthrough"/></g><g><path d="M2006,1240C2020.52,1240,2035.04,1240,2050,1240C2050,1254.52,2050,1269.04,2050,1284C2035.48,1284,2020.96,1284,2006,1284C2006,1269.48,2006,1254.96,2006,1240Z" fill="#54398A" fill-opacity="1" style="mix-blend-mode:passthrough"/></g><g><path d="M1830,1240C1844.52,1240,1859.04,1240,1874,1240C1874,1254.52,1874,1269.04,1874,1284C1859.48,1284,1844.96,1284,1830,1284C1830,1269.48,1830,1254.96,1830,1240Z" fill="#FECBE6" fill-opacity="1" style="mix-blend-mode:passthrough"/></g><g><path d="M1654,1240C1668.52,1240,1683.04,1240,1698,1240C1698,1254.52,1698,1269.04,1698,1284C1683.48,1284,1668.96,1284,1654,1284C1654,1269.48,1654,1254.96,1654,1240Z" fill="#6F4FAB" fill-opacity="1" style="mix-blend-mode:passthrough"/></g><g><path d="M2050,1196C2064.52,1196,2079.04,1196,2094,1196C2094,1210.52,2094,1225.04,2094,1240C2079.48,1240,2064.96,1240,2050,1240C2050,1225.48,2050,1210.96,2050,1196Z" fill="#54398A" fill-opacity="1" style="mix-blend-mode:passthrough"/></g><g><path d="M1874,1196C1888.52,1196,1903.04,1196,1918,1196C1918,1210.52,1918,1225.04,1918,1240C1903.48,1240,1888.96,1240,1874,1240C1874,1225.48,1874,1210.96,1874,1196Z" fill="#FFFDD5" fill-opacity="1" style="mix-blend-mode:passthrough"/></g><g><path d="M1698,1196C1712.52,1196,1727.04,1196,1742,1196C1742,1210.52,1742,1225.04,1742,1240C1727.48,1240,1712.96,1240,1698,1240C1698,1225.48,1698,1210.96,1698,1196Z" fill="#6F4FAB" fill-opacity="1" style="mix-blend-mode:passthrough"/></g><g><path d="M2094,1152C2108.52,1152,2123.04,1152,2138,1152C2138,1166.52,2138,1181.04,2138,1196C2123.48,1196,2108.96,1196,2094,1196C2094,1181.48,2094,1166.96,2094,1152Z" fill="#54398A" fill-opacity="1" style="mix-blend-mode:passthrough"/></g><g><path d="M1918,1152C1932.52,1152,1947.04,1152,1962,1152C1962,1166.52,1962,1181.04,1962,1196C1947.48,1196,1932.96,1196,1918,1196C1918,1181.48,1918,1166.96,1918,1152Z" fill="#CFA0F3" fill-opacity="1" style="mix-blend-mode:passthrough"/></g><g><path d="M1742,1152C1756.52,1152,1771.04,1152,1786,1152C1786,1166.52,1786,1181.04,1786,1196C1771.48,1196,1756.96,1196,1742,1196C1742,1181.48,1742,1166.96,1742,1152Z" fill="#6F4FAB" fill-opacity="1" style="mix-blend-mode:passthrough"/></g><g><path d="M1962,1108C1976.52,1108,1991.04,1108,2006,1108C2006,1122.52,2006,1137.04,2006,1152C1991.48,1152,1976.96,1152,1962,1152C1962,1137.48,1962,1122.96,1962,1108Z" fill="#CFA0F3" fill-opacity="1" style="mix-blend-mode:passthrough"/></g><g><path d="M1786,1108C1800.52,1108,1815.04,1108,1830,1108C1830,1122.52,1830,1137.04,1830,1152C1815.48,1152,1800.96,1152,1786,1152C1786,1137.48,1786,1122.96,1786,1108Z" fill="#6F4FAB" fill-opacity="1" style="mix-blend-mode:passthrough"/></g><g><path d="M2050,1064C2064.52,1064,2079.04,1064,2094,1064C2094,1078.52,2094,1093.04,2094,1108C2079.48,1108,2064.96,1108,2050,1108C2050,1093.48,2050,1078.96,2050,1064Z" fill="#CFA0F3" fill-opacity="1" style="mix-blend-mode:passthrough"/></g><g><path d="M2006,1064C2020.52,1064,2035.04,1064,2050,1064C2050,1078.52,2050,1093.04,2050,1108C2035.48,1108,2020.96,1108,2006,1108C2006,1093.48,2006,1078.96,2006,1064Z" fill="#FFFDD5" fill-opacity="1" style="mix-blend-mode:passthrough"/></g><g><path d="M1830,1064C1844.52,1064,1859.04,1064,1874,1064C1874,1078.52,1874,1093.04,1874,1108C1859.48,1108,1844.96,1108,1830,1108C1830,1093.48,1830,1078.96,1830,1064Z" fill="#6F4FAB" fill-opacity="1" style="mix-blend-mode:passthrough"/></g><g><path d="M2094,1020C2108.52,1020,2123.04,1020,2138,1020C2138,1034.52,2138,1049.04,2138,1064C2123.48,1064,2108.96,1064,2094,1064C2094,1049.48,2094,1034.96,2094,1020Z" fill="#CFA0F3" fill-opacity="1" style="mix-blend-mode:passthrough"/></g><g><path d="M2050,1020C2064.52,1020,2079.04,1020,2094,1020C2094,1034.52,2094,1049.04,2094,1064C2079.48,1064,2064.96,1064,2050,1064C2050,1049.48,2050,1034.96,2050,1020Z" fill="#FFFDD5" fill-opacity="1" style="mix-blend-mode:passthrough"/></g><g><path d="M1874,1020C1888.52,1020,1903.04,1020,1918,1020C1918,1034.52,1918,1049.04,1918,1064C1903.48,1064,1888.96,1064,1874,1064C1874,1049.48,1874,1034.96,1874,1020Z" fill="#6F4FAB" fill-opacity="1" style="mix-blend-mode:passthrough"/></g><g><path d="M1918,976C1932.52,976,1947.04,976,1962,976C1962,990.52,1962,1005.04,1962,1020C1947.48,1020,1932.96,1020,1918,1020C1918,1005.48,1918,990.96,1918,976Z" fill="#6F4FAB" fill-opacity="1" style="mix-blend-mode:passthrough"/></g></g></g></g><g><path d="M1526.4818048828124,1677.113Q1521.3923048828126,1677.113,1522.3058048828125,1673.704L1560.3218048828126,1542.376L1516.9283048828124,1542.376Q1515.0563048828126,1542.376,1514.5523048828125,1541.296Q1514.0483048828125,1540.216,1514.7210048828124,1537.624Q1515.5378048828125,1534.9848,1516.6178048828126,1534.0015Q1517.6978048828125,1533.016,1519.5698048828126,1533.016L1615.6180048828126,1533.016Q1617.5840048828125,1533.016,1617.9690048828124,1534.0488Q1618.3540048828124,1535.0793,1617.5840048828125,1537.6712Q1616.9610048828124,1540.2633,1615.9280048828125,1541.3208Q1614.8980048828125,1542.376,1613.0260048828125,1542.376L1570.4963048828124,1542.376L1532.4330048828124,1673.704Q1531.9538048828124,1675.432,1530.5610048828125,1676.271Q1529.1683048828124,1677.113,1526.4818048828124,1677.113ZM1582.4010048828125,1677.016Q1579.4243048828125,1676.969,1578.4658048828126,1675.263Q1577.5050048828125,1673.56,1579.1363048828125,1670.871L1664.1930048828126,1534.9848Q1665.8740048828124,1532.4873,1667.4330048828124,1531.5288Q1668.9920048828126,1530.568,1671.8250048828124,1530.568Q1674.0820048828125,1530.568,1675.3780048828125,1531.648Q1676.6740048828126,1532.728,1676.8180048828126,1536.0872L1688.7200048828124,1671.785Q1689.0580048828124,1674.183,1687.7840048828125,1675.576Q1686.5130048828125,1676.969,1683.5360048828124,1677.016Q1680.9440048828126,1677.016,1680.0080048828124,1676.008Q1679.0720048828125,1675,1678.8340048828125,1672.599L1675.5220048828126,1633.431L1614.1280048828125,1633.431L1589.7920048828125,1672.408Q1587.8730048828124,1675.385,1586.6000048828125,1676.199Q1585.3280048828126,1677.016,1582.4010048828125,1677.016ZM1620.1290048828125,1624.071L1674.6580048828125,1624.071L1668.0340048828125,1546.7433L1620.1290048828125,1624.071ZM1757.4580048828125,1677.833Q1747.1370048828126,1677.833,1738.9290048828125,1674.28Q1730.7210048828124,1670.727,1724.8640048828124,1663.959Q1719.0100048828126,1657.191,1715.9610048828124,1647.327Q1712.9120048828124,1637.463,1712.9120048828124,1624.935Q1712.9120048828124,1614.808,1715.2880048828124,1603.8890000000001Q1717.6640048828126,1592.967,1722.1760048828125,1582.433Q1726.6890048828125,1571.896,1733.4320048828124,1562.5608Q1740.1780048828125,1553.2233,1748.9120048828124,1546.0008Q1757.6490048828125,1538.776,1768.5210048828126,1534.672Q1779.3930048828124,1530.568,1792.0180048828124,1530.568Q1800.5140048828125,1530.568,1807.5700048828126,1532.4175Q1814.6260048828126,1534.2648,1820.1450048828124,1538.056Q1825.6640048828126,1541.8473,1829.4580048828125,1547.4633Q1830.5130048828125,1549.0473,1829.9370048828125,1550.1273Q1829.3610048828125,1551.2073,1827.6330048828124,1552.5033Q1825.9520048828126,1553.6553,1824.7760048828125,1553.7048Q1823.6010048828125,1553.752,1821.8730048828124,1552.0713Q1818.2260048828125,1548.2328,1813.6650048828126,1545.6408Q1809.1040048828124,1543.0488,1803.5130048828125,1541.7775Q1797.9220048828124,1540.504,1790.6720048828124,1540.504Q1780.5450048828125,1540.504,1771.7360048828125,1544.0095000000001Q1762.9300048828125,1547.5128,1755.4890048828124,1553.8488Q1748.0480048828126,1560.1848,1742.2410048828124,1568.2735Q1736.4340048828126,1576.36,1732.3300048828125,1585.745Q1728.2260048828125,1595.127,1726.0880048828126,1604.775Q1723.9530048828126,1614.423,1723.9530048828126,1623.689Q1723.9530048828126,1634.489,1726.1850048828126,1642.769Q1728.4170048828125,1651.049,1732.8320048828125,1656.6399999999999Q1737.2480048828124,1662.231,1743.7760048828125,1665.039Q1750.3050048828125,1667.847,1758.8480048828126,1667.847Q1765.3280048828124,1667.847,1771.2800048828126,1665.687Q1777.2330048828126,1663.527,1782.7770048828124,1659.617Q1788.3210048828125,1655.704,1793.5990048828126,1650.448Q1798.8800048828125,1645.192,1803.9700048828124,1639Q1805.3600048828125,1637.463,1806.7280048828125,1637.848Q1808.0960048828124,1638.233,1809.4890048828124,1639.576Q1811.2170048828125,1641.113,1811.3840048828124,1642.3609999999999Q1811.5520048828125,1643.608,1810.1620048828124,1645.48Q1801.6660048828126,1656.712,1792.6880048828125,1663.865Q1783.7130048828126,1671.0149999999999,1774.7850048828125,1674.424Q1765.8570048828124,1677.833,1757.4580048828125,1677.833ZM1835.8880048828125,1630.504Q1833.9690048828124,1630.504,1833.4880048828124,1629.424Q1833.0080048828124,1628.344,1833.8250048828124,1625.752Q1834.5920048828125,1623.113,1835.5530048828125,1622.13Q1836.5140048828125,1621.144,1838.4330048828124,1621.144L1884.8480048828126,1621.144Q1886.8170048828124,1621.144,1887.3440048828124,1622.177Q1887.8720048828125,1623.2069999999999,1887.1050048828124,1625.799Q1886.2880048828124,1628.391,1885.2550048828125,1629.449Q1884.2250048828125,1630.504,1882.3060048828124,1630.504L1835.8880048828125,1630.504ZM1942.4010048828125,1677.7359999999999Q1934.7220048828126,1677.7359999999999,1928.1920048828124,1675.839Q1921.6650048828126,1673.945,1916.4560048828125,1670.801Q1911.2500048828124,1667.656,1907.2400048828126,1663.84Q1903.2330048828126,1660.024,1900.5440048828125,1656.233Q1899.4420048828124,1654.696,1899.9460048828125,1653.425Q1900.4500048828124,1652.151,1901.7930048828125,1650.905Q1903.7620048828126,1649.465,1904.9860048828125,1649.346Q1906.2100048828124,1649.224,1907.3620048828125,1650.473Q1910.9620048828124,1654.887,1916.1210048828125,1658.8Q1921.2800048828126,1662.713,1927.9040048828124,1665.233Q1934.5280048828126,1667.753,1942.4010048828125,1667.753Q1950.5120048828126,1667.753,1957.4490048828125,1665.546Q1964.3860048828124,1663.336,1969.5200048828124,1659.257Q1974.6570048828125,1655.175,1977.4650048828125,1649.321Q1980.2730048828125,1643.464,1980.2730048828125,1636.073Q1980.2730048828125,1630.839,1978.5670048828124,1626.713Q1976.8640048828124,1622.584,1973.6960048828125,1619.105Q1970.5280048828126,1615.625,1965.9200048828125,1612.5529999999999Q1961.3120048828125,1609.48,1955.3610048828125,1606.312Q1950.6090048828125,1603.72,1946.2170048828125,1600.912Q1941.8250048828124,1598.104,1938.1040048828124,1594.914Q1934.3840048828124,1591.721,1931.6230048828124,1587.786Q1928.8650048828126,1583.848,1927.2810048828126,1578.905Q1925.6970048828125,1573.959,1925.6970048828125,1567.7673Q1925.6970048828125,1559.5593,1928.8400048828125,1552.6968Q1931.9860048828125,1545.8319999999999,1937.8180048828126,1540.8887Q1943.6500048828125,1535.9433,1951.6170048828126,1533.2568Q1959.5840048828125,1530.568,1969.0880048828126,1530.568Q1977.4400048828124,1530.568,1984.0170048828124,1532.872Q1990.5940048828124,1535.176,1996.0410048828126,1539.0415Q2001.4880048828124,1542.9048,2005.9050048828126,1547.7513Q2007.2480048828124,1549.0968,2006.9350048828123,1550.4648Q2006.6250048828124,1551.8328,2005.0880048828126,1553.2728Q2003.7450048828125,1554.5193,2002.2550048828125,1554.6633Q2000.7680048828124,1554.8073,1999.3780048828125,1553.7048Q1995.5370048828127,1550.1993,1991.3110048828125,1547.2Q1987.0880048828126,1544.2008,1981.7850048828125,1542.3535Q1976.4820048828124,1540.504,1968.9940048828125,1540.504Q1961.9380048828125,1540.504,1956.0560048828124,1542.304Q1950.1770048828125,1544.104,1945.8320048828125,1547.6095Q1941.4900048828126,1551.1127999999999,1939.0170048828124,1556.2Q1936.5440048828125,1561.2873,1936.5440048828125,1567.72Q1936.5440048828125,1573.192,1938.0810048828125,1577.274Q1939.6180048828126,1581.353,1942.6170048828126,1584.737Q1945.6160048828124,1588.121,1950.2240048828126,1591.17Q1954.8320048828125,1594.216,1960.9300048828125,1597.528Q1967.3600048828125,1600.984,1972.8070048828126,1604.681Q1978.2570048828125,1608.375,1982.4080048828125,1612.864Q1986.5620048828125,1617.353,1988.8410048828125,1622.993Q1991.1200048828125,1628.632,1991.1200048828125,1635.879Q1991.1200048828125,1645.048,1987.4730048828126,1652.705Q1983.8260048828124,1660.359,1977.2240048828126,1665.975Q1970.6250048828124,1671.591,1961.6970048828125,1674.665Q1952.7690048828126,1677.7359999999999,1942.4010048828125,1677.7359999999999ZM2033.8410048828125,1677.7359999999999Q2025.4420048828124,1677.7359999999999,2019.9700048828126,1674.258Q2014.4980048828124,1670.777,2011.8810048828125,1664.513Q2009.2640048828125,1658.249,2009.2640048828125,1650.329Q2009.2640048828125,1641.2069999999999,2012.3130048828125,1632.304Q2015.3620048828125,1623.401,2021.0500048828126,1616.154Q2026.7380048828124,1608.904,2034.8740048828126,1604.584Q2043.0100048828126,1600.2640000000001,2053.2340048828128,1600.2640000000001Q2060.1460048828126,1600.2640000000001,2064.5380048828124,1602.402Q2068.9300048828127,1604.537,2071.0400048828124,1608.209Q2073.1530048828126,1611.881,2073.1530048828126,1616.727Q2073.1530048828126,1623.113,2069.4560048828125,1627.962Q2065.7620048828126,1632.808,2059.5920048828125,1636.505Q2053.4250048828126,1640.199,2045.7210048828124,1642.816Q2038.0170048828124,1645.433,2030.1190048828125,1647.089Q2022.2240048828126,1648.745,2015.0240048828125,1649.8L2015.7940048828125,1641.545Q2021.2660048828125,1640.681,2027.5300048828126,1639.41Q2033.7940048828125,1638.136,2039.9610048828126,1636.2640000000001Q2046.1280048828125,1634.392,2051.2650048828127,1631.753Q2056.4020048828124,1629.1109999999999,2059.426004882813,1625.68Q2062.4500048828127,1622.249,2062.4500048828127,1617.688Q2062.4500048828127,1613.512,2059.5920048828125,1611.496Q2056.7370048828125,1609.48,2051.9380048828125,1609.48Q2044.6880048828125,1609.48,2038.6870048828125,1612.9859999999999Q2032.6890048828125,1616.489,2028.5130048828125,1622.321Q2024.3370048828124,1628.153,2021.9830048828126,1635.256Q2019.6320048828125,1642.359,2019.6320048828125,1649.512Q2019.6320048828125,1655.416,2021.3350048828124,1659.7359999999999Q2023.0410048828126,1664.056,2026.4720048828126,1666.241Q2029.9060048828123,1668.423,2035.2340048828125,1668.423Q2040.7060048828125,1668.423,2045.1200048828125,1666.144Q2049.5370048828127,1663.865,2053.2560048828127,1660.384Q2056.9780048828125,1656.903,2060.0490048828124,1653.4470000000001Q2061.5360048828124,1651.769,2063.2390048828124,1652.081Q2064.9450048828126,1652.392,2066.3380048828126,1653.688Q2067.5370048828127,1654.937,2067.7280048828125,1656.377Q2067.9220048828124,1657.817,2066.6260048828126,1659.6390000000001Q2062.1120048828125,1665.305,2056.7840048828125,1669.337Q2051.4560048828125,1673.369,2045.6490048828125,1675.551Q2039.8420048828125,1677.7359999999999,2033.8410048828125,1677.7359999999999ZM2085.7280048828125,1677.16Q2083.5680048828126,1677.16,2082.1530048828126,1676.318Q2080.7380048828127,1675.479,2081.4080048828127,1673.369L2101.2330048828126,1604.537Q2101.9530048828124,1602.327,2103.0800048828123,1601.585Q2104.2100048828124,1600.84,2106.4640048828123,1600.84Q2109.8260048828124,1600.84,2110.9060048828123,1601.898Q2111.9860048828123,1602.953,2111.2660048828125,1605.304L2103.1050048828124,1633.193Q2107.9540048828126,1624.2649999999999,2112.6560048828123,1617.976Q2117.3610048828123,1611.687,2121.8000048828126,1607.752Q2126.2420048828126,1603.817,2130.2490048828126,1602.042Q2134.2560048828127,1600.2640000000001,2137.6650048828124,1600.2640000000001Q2141.6970048828125,1600.2640000000001,2144.8400048828125,1602.136Q2147.9860048828123,1604.008,2149.6170048828126,1606.6Q2150.5280048828126,1607.752,2150.2400048828126,1609.098Q2149.9520048828126,1610.441,2148.7530048828125,1611.737Q2147.3600048828125,1613.033,2146.1360048828124,1613.537Q2144.9120048828127,1614.041,2143.9040048828124,1612.936Q2142.5140048828125,1611.687,2140.5450048828125,1610.632Q2138.5760048828124,1609.577,2136.3220048828125,1609.577Q2132.3370048828124,1609.577,2127.2000048828127,1613.202Q2122.0660048828126,1616.824,2116.4000048828125,1624.121Q2110.7370048828125,1631.415,2104.7110048828126,1642.337Q2098.6880048828125,1653.256,2092.9280048828123,1667.753L2091.3440048828124,1673.945Q2090.9120048828127,1675.576,2089.6410048828125,1676.368Q2088.3700048828123,1677.16,2085.7280048828125,1677.16ZM2167.5700048828126,1677.16Q2165.0720048828125,1677.16,2164.1360048828124,1676.247Q2163.2000048828127,1675.335,2163.0560048828124,1673.56L2155.3300048828123,1606.2649999999999Q2155.0890048828123,1603.72,2156.551004882813,1602.28Q2158.0160048828125,1600.84,2160.4170048828128,1600.84Q2162.4330048828124,1600.84,2163.6070048828124,1601.585Q2164.7840048828125,1602.327,2164.9280048828123,1604.728L2171.3140048828127,1662.281L2210.0970048828126,1604.152Q2211.7280048828125,1602.039,2212.8800048828125,1601.441Q2214.0320048828125,1600.84,2215.7130048828126,1600.84Q2218.9280048828123,1600.84,2220.3210048828123,1602.6399999999999Q2221.7140048828123,1604.44,2220.1770048828125,1606.456L2173.9060048828123,1673.945Q2172.7040048828126,1675.432,2171.3830048828127,1676.296Q2170.0650048828124,1677.16,2167.5700048828126,1677.16ZM2248.2570048828125,1677.7359999999999Q2239.8580048828126,1677.7359999999999,2234.3860048828124,1674.258Q2228.9140048828126,1670.777,2226.2970048828124,1664.513Q2223.6800048828127,1658.249,2223.6800048828127,1650.329Q2223.6800048828127,1641.2069999999999,2226.7290048828127,1632.304Q2229.7780048828126,1623.401,2235.4660048828127,1616.154Q2241.1540048828124,1608.904,2249.2900048828124,1604.584Q2257.426004882813,1600.2640000000001,2267.6500048828125,1600.2640000000001Q2274.5620048828123,1600.2640000000001,2278.9540048828126,1602.402Q2283.3460048828124,1604.537,2285.4560048828125,1608.209Q2287.5690048828124,1611.881,2287.5690048828124,1616.727Q2287.5690048828124,1623.113,2283.8720048828127,1627.962Q2280.1780048828123,1632.808,2274.0080048828127,1636.505Q2267.8410048828127,1640.199,2260.1370048828126,1642.816Q2252.4330048828124,1645.433,2244.5350048828122,1647.089Q2236.6400048828127,1648.745,2229.4400048828124,1649.8L2230.2100048828124,1641.545Q2235.6820048828126,1640.681,2241.9460048828123,1639.41Q2248.2100048828124,1638.136,2254.3770048828123,1636.2640000000001Q2260.5440048828123,1634.392,2265.6810048828124,1631.753Q2270.8180048828126,1629.1109999999999,2273.8420048828125,1625.68Q2276.8660048828124,1622.249,2276.8660048828124,1617.688Q2276.8660048828124,1613.512,2274.0080048828127,1611.496Q2271.1530048828126,1609.48,2266.3540048828127,1609.48Q2259.1040048828127,1609.48,2253.1030048828125,1612.9859999999999Q2247.1050048828124,1616.489,2242.9290048828125,1622.321Q2238.7530048828125,1628.153,2236.3990048828127,1635.256Q2234.0480048828126,1642.359,2234.0480048828126,1649.512Q2234.0480048828126,1655.416,2235.7510048828126,1659.7359999999999Q2237.4570048828127,1664.056,2240.8880048828123,1666.241Q2244.3220048828125,1668.423,2249.6500048828125,1668.423Q2255.1220048828127,1668.423,2259.5360048828124,1666.144Q2263.9530048828124,1663.865,2267.6720048828124,1660.384Q2271.3940048828126,1656.903,2274.4650048828125,1653.4470000000001Q2275.9520048828126,1651.769,2277.6550048828126,1652.081Q2279.3610048828123,1652.392,2280.7540048828123,1653.688Q2281.9530048828124,1654.937,2282.1440048828126,1656.377Q2282.3380048828126,1657.817,2281.0420048828128,1659.6390000000001Q2276.5280048828126,1665.305,2271.2000048828127,1669.337Q2265.8720048828127,1673.369,2260.0650048828124,1675.551Q2254.2580048828127,1677.7359999999999,2248.2570048828125,1677.7359999999999ZM2300.1440048828126,1677.16Q2297.9840048828128,1677.16,2296.5690048828124,1676.318Q2295.1540048828124,1675.479,2295.8240048828125,1673.369L2315.6490048828127,1604.537Q2316.3690048828125,1602.327,2317.4960048828125,1601.585Q2318.6260048828126,1600.84,2320.8800048828125,1600.84Q2324.2420048828126,1600.84,2325.3220048828125,1601.898Q2326.4020048828124,1602.953,2325.6820048828126,1605.304L2317.5210048828126,1633.193Q2322.3700048828123,1624.2649999999999,2327.0720048828125,1617.976Q2331.7770048828124,1611.687,2336.2160048828127,1607.752Q2340.6580048828127,1603.817,2344.6650048828124,1602.042Q2348.6720048828124,1600.2640000000001,2352.0810048828125,1600.2640000000001Q2356.1130048828127,1600.2640000000001,2359.2560048828127,1602.136Q2362.4020048828124,1604.008,2364.0330048828127,1606.6Q2364.9440048828124,1607.752,2364.6560048828123,1609.098Q2364.368004882813,1610.441,2363.1690048828123,1611.737Q2361.7760048828122,1613.033,2360.5520048828125,1613.537Q2359.3280048828124,1614.041,2358.3200048828126,1612.936Q2356.9300048828127,1611.687,2354.9610048828126,1610.632Q2352.9920048828126,1609.577,2350.7380048828127,1609.577Q2346.7530048828125,1609.577,2341.6160048828124,1613.202Q2336.4820048828124,1616.824,2330.8160048828126,1624.121Q2325.1530048828126,1631.415,2319.1270048828123,1642.337Q2313.1040048828127,1653.256,2307.3440048828124,1667.753L2305.7600048828126,1673.945Q2305.3280048828124,1675.576,2304.0570048828126,1676.368Q2302.7860048828124,1677.16,2300.1440048828126,1677.16Z" fill="url(#master_svgm_63_0325)" fill-opacity="1"/></g></g></svg>